<?xml version="1.0" encoding="UTF-8" standalone="no"?>
<svg
   xmlns:dc="http://purl.org/dc/elements/1.1/"
   xmlns:cc="http://creativecommons.org/ns#"
   xmlns:rdf="http://www.w3.org/1999/02/22-rdf-syntax-ns#"
   xmlns:svg="http://www.w3.org/2000/svg"
   xmlns="http://www.w3.org/2000/svg"
   viewBox="0 0 1626.1067 438.33066"
   height="438.33066"
   width="1626.1067"
   xml:space="preserve"
   id="svg2"
   version="1.1"><metadata
     id="metadata8"><rdf:RDF><cc:Work
         rdf:about=""><dc:format>image/svg+xml</dc:format><dc:type
           rdf:resource="http://purl.org/dc/dcmitype/StillImage" /></cc:Work></rdf:RDF></metadata><defs
     id="defs6"><clipPath
       id="clipPath18"
       clipPathUnits="userSpaceOnUse"><path
         id="path16"
         d="M 0,328.748 H 1219.584 V 0 H 0 Z" /></clipPath></defs><g
     transform="matrix(1.3333333,0,0,-1.3333333,0,438.33067)"
     id="g10"><g
       id="g12"><g
         clip-path="url(#clipPath18)"
         id="g14"><g
           transform="translate(198.0704,143.8437)"
           id="g20"><path
             id="path22"
             style="fill:#6caf2e;fill-opacity:1;fill-rule:nonzero;stroke:none"
             d="M 0,0 C 0,6.001 1.815,11.577 4.922,16.214 L -52.651,-46.322 H 25.92 l 22.486,24.425 C 43.271,-26.415 36.538,-29.16 29.16,-29.16 13.055,-29.16 0,-16.105 0,0" /></g><g
           transform="translate(255.825,143.1569)"
           id="g24"><path
             id="path26"
             style="fill:#6caf2e;fill-opacity:1;fill-rule:nonzero;stroke:none"
             d="m 0,0 c 0,-16.105 -13.056,-29.16 -29.16,-29.16 -16.105,0 -29.161,13.055 -29.161,29.16 0,16.105 13.056,29.16 29.161,29.16 C -13.056,29.16 0,16.105 0,0" /></g><g
           transform="translate(185.5454,165.8826)"
           id="g28"><path
             id="path30"
             style="fill:#5d51c8;fill-opacity:1;fill-rule:nonzero;stroke:none"
             d="M 0,0 C 0,-6.001 -1.815,-11.577 -4.922,-16.214 L 52.651,46.322 H -25.92 L -48.406,21.897 c 5.135,4.518 11.868,7.263 19.246,7.263 C -13.055,29.16 0,16.105 0,0" /></g><g
           transform="translate(127.7908,166.5694)"
           id="g32"><path
             id="path34"
             style="fill:#5d51c8;fill-opacity:1;fill-rule:nonzero;stroke:none"
             d="M 0,0 C 0,16.105 13.056,29.16 29.16,29.16 45.265,29.16 58.321,16.105 58.321,0 58.321,-16.105 45.265,-29.16 29.16,-29.16 13.056,-29.16 0,-16.105 0,0" /></g><g
           transform="translate(316.8319,100.5735)"
           id="g36"><path
             id="path38"
             style="fill:#292929;fill-opacity:1;fill-rule:nonzero;stroke:none"
             d="m 0,0 c -6.507,2.665 -11.708,6.613 -15.6,11.84 -3.895,5.225 -5.947,11.52 -6.16,18.88 H 7.36 c 0.425,-4.16 1.865,-7.335 4.32,-9.52 2.452,-2.187 5.653,-3.28 9.6,-3.28 4.053,0 7.253,0.933 9.6,2.8 2.345,1.865 3.52,4.453 3.52,7.76 0,2.772 -0.935,5.065 -2.8,6.88 -1.868,1.813 -4.16,3.305 -6.88,4.48 -2.72,1.173 -6.588,2.505 -11.6,4 -7.255,2.24 -13.175,4.48 -17.76,6.72 -4.588,2.24 -8.535,5.545 -11.84,9.92 -3.308,4.373 -4.96,10.08 -4.96,17.12 0,10.453 3.785,18.64 11.36,24.56 7.573,5.92 17.44,8.88 29.6,8.88 12.373,0 22.345,-2.96 29.92,-8.88 C 57.013,96.24 61.065,88 61.6,77.44 H 32 c -0.215,3.625 -1.547,6.48 -4,8.56 -2.455,2.08 -5.6,3.12 -9.44,3.12 -3.308,0 -5.975,-0.88 -8,-2.64 -2.027,-1.76 -3.04,-4.295 -3.04,-7.6 0,-3.628 1.705,-6.455 5.12,-8.48 3.413,-2.027 8.745,-4.215 16,-6.56 7.253,-2.455 13.145,-4.8 17.68,-7.04 4.533,-2.24 8.452,-5.495 11.76,-9.76 3.305,-4.268 4.96,-9.76 4.96,-16.48 0,-6.4 -1.627,-12.215 -4.88,-17.44 C 54.905,7.893 50.185,3.732 44,0.64 37.813,-2.455 30.505,-4 22.08,-4 13.865,-4 6.505,-2.667 0,0" /></g><g
           transform="translate(453.4706,150.9734)"
           id="g40"><path
             id="path42"
             style="fill:#292929;fill-opacity:1;fill-rule:nonzero;stroke:none"
             d="m 0,0 c 0,4.693 -1.6,8.425 -4.8,11.2 -3.2,2.773 -7.2,4.16 -12,4.16 -4.588,0 -8.455,-1.335 -11.6,-4 C -31.547,8.693 -33.495,4.905 -34.24,0 Z M 27.52,-15.2 H -34.4 c 0.425,-5.547 2.212,-9.787 5.36,-12.72 3.145,-2.935 7.013,-4.4 11.6,-4.4 6.825,0 11.572,2.88 14.24,8.64 h 29.12 c -1.495,-5.867 -4.188,-11.147 -8.08,-15.84 -3.895,-4.695 -8.775,-8.375 -14.64,-11.04 -5.867,-2.667 -12.428,-4 -19.68,-4 -8.748,0 -16.535,1.865 -23.36,5.6 -6.827,3.733 -12.16,9.065 -16,16 -3.84,6.933 -5.76,15.04 -5.76,24.32 0,9.28 1.892,17.385 5.68,24.32 3.785,6.933 9.092,12.265 15.92,16 6.825,3.733 14.665,5.6 23.52,5.6 8.64,0 16.32,-1.815 23.04,-5.44 6.72,-3.627 11.972,-8.8 15.76,-15.52 C 26.105,9.6 28,1.76 28,-7.2 c 0,-2.56 -0.16,-5.227 -0.48,-8" /></g><g
           transform="translate(535.8695,183.6936)"
           id="g44"><path
             id="path46"
             style="fill:#292929;fill-opacity:1;fill-rule:nonzero;stroke:none"
             d="M 0,0 C 4.8,2.825 10.133,4.24 16,4.24 V -24.72 H 8.48 c -6.827,0 -11.947,-1.467 -15.36,-4.4 C -10.295,-32.055 -12,-37.2 -12,-44.56 V -86 H -39.36 V 3.28 H -12 V -11.6 c 3.2,4.905 7.2,8.772 12,11.6" /></g><g
           transform="translate(605.7889,123.2937)"
           id="g48"><path
             id="path50"
             style="fill:#292929;fill-opacity:1;fill-rule:nonzero;stroke:none"
             d="M 0,0 19.36,63.68 H 48.48 L 16.8,-25.6 h -33.76 l -31.68,89.28 h 29.28 z" /></g><path
           id="path52"
           style="fill:#292929;fill-opacity:1;fill-rule:nonzero;stroke:none"
           d="m 693.787,97.694 h -27.36 v 89.28 h 27.36 z m -25.359,102.799 c -3.04,2.826 -4.56,6.321 -4.56,10.48 0,4.266 1.52,7.813 4.56,10.641 3.04,2.825 6.96,4.24 11.76,4.24 4.692,0 8.56,-1.415 11.599,-4.24 3.041,-2.828 4.561,-6.375 4.561,-10.641 0,-4.159 -1.52,-7.654 -4.561,-10.48 -3.039,-2.827 -6.907,-4.239 -11.599,-4.239 -4.8,0 -8.72,1.412 -11.76,4.239" /><g
           transform="translate(714.5077,166.6536)"
           id="g54"><path
             id="path56"
             style="fill:#292929;fill-opacity:1;fill-rule:nonzero;stroke:none"
             d="m 0,0 c 3.785,6.933 9.065,12.265 15.84,16 6.772,3.732 14.533,5.6 23.28,5.6 11.2,0 20.56,-2.935 28.08,-8.8 C 74.72,6.933 79.652,-1.335 82,-12 H 52.88 c -2.455,6.825 -7.2,10.24 -14.24,10.24 -5.015,0 -9.015,-1.948 -12,-5.84 -2.988,-3.895 -4.48,-9.467 -4.48,-16.72 0,-7.255 1.492,-12.827 4.48,-16.72 2.985,-3.895 6.985,-5.84 12,-5.84 7.04,0 11.785,3.413 14.24,10.24 H 82 c -2.348,-10.455 -7.308,-18.668 -14.88,-24.64 -7.575,-5.975 -16.908,-8.96 -28,-8.96 -8.747,0 -16.508,1.865 -23.28,5.6 -6.775,3.733 -12.055,9.065 -15.84,16 -3.788,6.932 -5.68,15.04 -5.68,24.32 0,9.28 1.892,17.385 5.68,24.32" /></g><g
           transform="translate(867.8666,150.9734)"
           id="g58"><path
             id="path60"
             style="fill:#292929;fill-opacity:1;fill-rule:nonzero;stroke:none"
             d="m 0,0 c 0,4.693 -1.6,8.425 -4.8,11.2 -3.2,2.773 -7.2,4.16 -12,4.16 -4.588,0 -8.455,-1.335 -11.6,-4 C -31.547,8.693 -33.495,4.905 -34.24,0 Z M 27.52,-15.2 H -34.4 c 0.425,-5.547 2.212,-9.787 5.36,-12.72 3.145,-2.935 7.013,-4.4 11.6,-4.4 6.825,0 11.572,2.88 14.24,8.64 h 29.12 c -1.495,-5.867 -4.188,-11.147 -8.08,-15.84 -3.895,-4.695 -8.775,-8.375 -14.64,-11.04 -5.867,-2.667 -12.428,-4 -19.68,-4 -8.748,0 -16.535,1.865 -23.36,5.6 -6.827,3.733 -12.16,9.065 -16,16 -3.84,6.933 -5.76,15.04 -5.76,24.32 0,9.28 1.892,17.385 5.68,24.32 3.785,6.933 9.092,12.265 15.92,16 6.825,3.733 14.665,5.6 23.52,5.6 8.64,0 16.32,-1.815 23.04,-5.44 6.72,-3.627 11.972,-8.8 15.76,-15.52 C 26.105,9.6 28,1.76 28,-7.2 c 0,-2.56 -0.16,-5.227 -0.48,-8" /></g><g
           transform="translate(985.5463,130.4934)"
           id="g62"><path
             id="path64"
             style="fill:#292929;fill-opacity:1;fill-rule:nonzero;stroke:none"
             d="m 0,0 c 5.385,5.973 8.08,13.865 8.08,23.68 0,9.92 -2.695,17.84 -8.08,23.76 -5.388,5.92 -12.56,8.88 -21.52,8.88 -9.067,0 -16.295,-2.935 -21.68,-8.8 -5.387,-5.867 -8.08,-13.815 -8.08,-23.84 0,-9.92 2.693,-17.84 8.08,-23.76 5.385,-5.92 12.613,-8.88 21.68,-8.88 8.96,0 16.132,2.985 21.52,8.96 m -50.56,-26.56 c -8.8,4.905 -15.788,11.76 -20.96,20.56 -5.175,8.8 -7.76,18.693 -7.76,29.68 0,10.985 2.585,20.853 7.76,29.6 5.172,8.745 12.16,15.573 20.96,20.48 8.8,4.905 18.48,7.36 29.04,7.36 10.56,0 20.24,-2.455 29.04,-7.36 8.8,-4.907 15.732,-11.735 20.8,-20.48 5.065,-8.747 7.6,-18.615 7.6,-29.6 C 35.92,12.693 33.36,2.8 28.24,-6 23.12,-14.8 16.185,-21.655 7.44,-26.56 c -8.748,-4.907 -18.4,-7.36 -28.96,-7.36 -10.56,0 -20.24,2.453 -29.04,7.36" /></g><g
           transform="translate(1116.7455,177.7737)"
           id="g66"><path
             id="path68"
             style="fill:#292929;fill-opacity:1;fill-rule:nonzero;stroke:none"
             d="m 0,0 c 6.24,-6.775 9.36,-16.08 9.36,-27.92 v -52.16 h -27.2 v 48.48 c 0,5.973 -1.547,10.612 -4.64,13.92 -3.095,3.305 -7.255,4.96 -12.48,4.96 -5.228,0 -9.387,-1.655 -12.48,-4.96 -3.095,-3.308 -4.64,-7.947 -4.64,-13.92 V -80.08 H -79.44 V 9.2 h 27.36 V -2.64 c 2.773,3.945 6.505,7.065 11.2,9.36 4.692,2.292 9.973,3.44 15.84,3.44 C -14.587,10.16 -6.24,6.772 0,0" /></g></g></g></g></svg>